# xmcd CD database file generated by Grip 3.3.0
# 
# Track frame offsets:
#       150
#       14150
#       29525
# 
# Disc length: 712 seconds
# 
# Revision: 3
# Processed by: cddbd v1.5.1PL0 Copyright (c) Steve Scherf et al.
# Submitted via: Grip 3.3.0
# 
DISCID=2202c603
DTITLE=Compost Binde - Batia-mouche
DYEAR=1900
DGENRE=Blues
TTITLE0=Batia-mouche
TTITLE1=Transe en sandales blues
TTITLE2=Batia-mouche avou sacwantès rawetes
EXTD=
EXTT0=
EXTT1=
EXTT2=
PLAYORDER=
